# Blender 3.3.0
# www.blender.org
o Circle
v -0.809230 0.476706 0.139604
v -0.809230 -0.437354 0.139604
v -0.017631 -0.894384 0.139604
v 0.773969 -0.437354 0.139604
v 0.773969 0.476706 0.139604
v -0.017631 0.933736 0.139604
v 0.902816 0.520626 0.097896
v 0.902816 -0.521437 0.097896
v 0.000363 -1.042468 0.097896
v -0.902090 -0.521437 0.097896
v 0.000363 1.041657 0.097896
v -0.902090 0.520626 0.097896
vn -0.1885 -0.3265 -0.9262
vn 0.1651 0.2859 -0.9439
vn 0.4097 -0.0000 -0.9122
vn -0.3080 -0.0000 -0.9514
vn -0.1454 0.2518 -0.9568
vn 0.2214 -0.3834 -0.8966
vt 0.000000 0.000000
vt 0.000000 0.000000
vt 0.000000 0.000000
vt 0.000000 0.000000
vt 0.000000 0.000000
vt 0.000000 0.000000
vt 0.000000 0.000000
vt 0.000000 0.000000
vt 0.000000 0.000000
vt 0.000000 0.000000
vt 0.000000 0.000000
vt 0.000000 0.000000
s 0
f 11/11/1 7/7/1 5/5/1 6/6/1
f 9/9/2 10/10/2 2/2/2 3/3/2
f 10/10/3 12/12/3 1/1/3 2/2/3
f 7/7/4 8/8/4 4/4/4 5/5/4
f 8/8/5 9/9/5 3/3/5 4/4/5
f 12/12/6 11/11/6 6/6/6 1/1/6
