# Blender 3.3.0
# www.blender.org
o Circle
v 0.000000 1.000000 0.000000
v -0.866025 0.500000 0.000000
v -0.866025 -0.500000 0.000000
v 0.000000 -1.000000 0.000000
v 0.866025 -0.500000 0.000000
v 0.866025 0.500000 0.000000
v -0.866025 0.500000 0.243960
v 0.000000 1.000000 0.243960
v -0.866025 -0.500000 0.243960
v 0.000000 -1.000000 0.243960
v 0.866025 -0.500000 0.243960
v 0.866025 0.500000 0.243960
v -0.102270 0.059046 0.736084
v 0.000000 0.118091 0.736084
v -0.102270 -0.059046 0.736084
v 0.000000 -0.118091 0.736084
v 0.102270 -0.059046 0.736084
v 0.102270 0.059046 0.736084
v -0.102270 0.059046 2.288341
v 0.000000 0.118091 2.288341
v -0.102270 -0.059046 2.288341
v 0.000000 -0.118091 2.288341
v 0.102270 -0.059046 2.288341
v 0.102270 0.059046 2.288341
v 0.000000 0.000000 2.567239
v 0.543271 -0.394705 2.982264
v -0.207507 -0.638651 2.982264
v -0.671525 0.000000 2.982264
v -0.207507 0.638651 2.982264
v 0.543271 0.394705 2.982264
v 0.207507 -0.638651 3.653792
v -0.543271 -0.394705 3.653792
v -0.543271 0.394705 3.653792
v 0.207507 0.638651 3.653792
v 0.671525 0.000000 3.653792
v 0.000000 0.000000 4.068817
v 0.328956 0.106883 3.318028
v 0.328956 -0.106883 3.318028
v 0.090922 0.279824 3.136184
v -0.238034 0.172941 3.136184
v -0.056191 0.172941 3.023799
v -0.238034 -0.172941 3.136184
v -0.181843 0.000000 3.023799
v 0.147113 0.106883 3.023799
v 0.294226 0.000000 3.136184
v 0.090922 -0.279824 3.136184
v 0.147113 -0.106883 3.023799
v -0.056191 -0.172941 3.023799
v 0.000000 -0.345882 3.318028
v 0.203304 -0.279824 3.318028
v -0.328956 -0.106883 3.318028
v -0.203304 -0.279824 3.318028
v -0.203304 0.279824 3.318028
v -0.328956 0.106883 3.318028
v 0.203304 0.279824 3.318028
v 0.000000 0.345882 3.318028
v 0.238034 -0.172941 3.499872
v -0.090922 -0.279824 3.499872
v -0.294226 0.000000 3.499872
v -0.090922 0.279824 3.499872
v 0.238034 0.172941 3.499872
v 0.056191 -0.172941 3.612257
v 0.181843 0.000000 3.612257
v -0.147113 -0.106883 3.612257
v -0.147113 0.106883 3.612257
v 0.056191 0.172941 3.612257
vn 0.5416 -0.0000 0.8406
vn 0.5000 -0.8660 -0.0000
vn -1.0000 -0.0000 -0.0000
vn 1.0000 -0.0000 -0.0000
vn -0.5000 -0.8660 -0.0000
vn -0.5000 0.8660 -0.0000
vn 0.5000 0.8660 -0.0000
vn -0.2708 -0.4691 0.8406
vn -0.2708 0.4691 0.8406
vn 0.2708 0.4691 0.8406
vn 0.2708 -0.4691 0.8406
vn -0.5416 -0.0000 0.8406
vn -0.0000 -0.0000 1.0000
vn -0.2941 0.9052 0.3067
vn -0.2722 -0.4938 0.8259
vn 0.7700 0.5595 0.3067
vn 0.7700 -0.5595 0.3067
vn -0.2941 -0.9052 0.3067
vn -0.8604 -0.4938 -0.1259
vn -0.7355 0.6657 -0.1259
vn 0.4058 0.9052 -0.1259
vn 0.9863 -0.1063 -0.1259
vn 0.2037 -0.9709 -0.1259
vn -0.5663 0.4114 -0.7142
vn 0.2163 0.6657 -0.7142
vn 0.7000 -0.0000 -0.7142
vn 0.2163 -0.6657 -0.7142
vn -0.5663 -0.4114 -0.7142
vn -0.5104 -0.2395 -0.8259
vn -0.3855 0.4114 -0.8259
vn 0.2722 0.4938 -0.8259
vn 0.5537 -0.1063 -0.8259
vn 0.0701 -0.5595 -0.8259
vn -0.2037 -0.9709 0.1259
vn -0.7700 0.5595 -0.3067
vn 0.3035 -0.9342 -0.1876
vn 0.0701 0.5595 -0.8259
vn -0.4911 0.3568 -0.7947
vn 0.2941 0.9052 -0.3067
vn -0.4058 -0.9052 0.1259
vn -0.7946 -0.5774 -0.1876
vn 0.6071 -0.0000 -0.7947
vn 0.5537 0.1063 -0.8259
vn 0.1876 0.5774 -0.7947
vn -0.9863 -0.1063 0.1259
vn 0.2722 -0.4938 -0.8259
vn 0.2941 -0.9052 -0.3067
vn 0.9518 -0.0000 -0.3067
vn 0.1876 -0.5774 -0.7947
vn -0.7700 -0.5595 -0.3067
vn -0.4911 -0.3568 -0.7947
vn -0.5104 0.2395 -0.8259
vn -0.3855 -0.4114 -0.8259
vn 0.7355 -0.6657 0.1259
vn 0.8604 -0.4938 0.1259
vn 0.9822 -0.0000 -0.1876
vn 0.8604 0.4938 0.1259
vn 0.7355 0.6657 0.1259
vn 0.3035 0.9342 -0.1876
vn -0.2037 0.9709 0.1259
vn -0.4058 0.9052 0.1259
vn -0.7946 0.5774 -0.1876
vn -0.9863 0.1063 0.1259
vn -0.7355 -0.6657 -0.1259
vn -0.3035 -0.9342 0.1876
vn -0.2163 -0.6657 0.7142
vn 0.4058 -0.9052 -0.1259
vn 0.7946 -0.5774 0.1876
vn 0.5663 -0.4114 0.7142
vn 0.9863 0.1063 -0.1259
vn 0.7946 0.5774 0.1876
vn 0.5663 0.4114 0.7142
vn 0.2037 0.9709 -0.1259
vn -0.3035 0.9342 0.1876
vn -0.2163 0.6657 0.7142
vn -0.8604 0.4938 -0.1259
vn -0.9822 -0.0000 0.1876
vn -0.7000 -0.0000 0.7142
vn -0.5537 -0.1063 0.8259
vn -0.1876 -0.5774 0.7947
vn 0.3855 -0.4114 0.8259
vn -0.0701 -0.5595 0.8259
vn 0.4911 -0.3568 0.7947
vn 0.5104 0.2395 0.8259
vn 0.5104 -0.2395 0.8259
vn 0.4911 0.3568 0.7947
vn -0.0701 0.5595 0.8259
vn -0.9518 -0.0000 0.3067
vn -0.6071 -0.0000 0.7947
vn -0.2722 0.4938 0.8259
vn 0.3855 0.4114 0.8259
vn -0.1876 0.5774 0.7947
vn -0.5537 0.1063 0.8259
vt 0.000000 0.000000
vt 0.000000 0.000000
vt 0.000000 0.000000
vt 0.000000 0.000000
vt 0.000000 0.000000
vt 0.000000 0.000000
vt 0.000000 0.000000
vt 0.000000 0.000000
vt 0.000000 0.000000
vt 0.000000 0.000000
vt 0.000000 0.000000
vt 0.000000 0.000000
vt 0.000000 0.000000
vt 0.000000 0.000000
vt 0.000000 0.000000
vt 0.000000 0.000000
vt 0.000000 0.000000
vt 0.000000 0.000000
vt 0.000000 0.000000
vt 0.000000 0.000000
vt 0.000000 0.000000
vt 0.000000 0.000000
vt 0.000000 0.000000
vt 0.000000 0.000000
vt 0.181819 0.000000
vt 0.909091 0.000000
vt 0.727273 0.000000
vt 0.545455 0.000000
vt 0.363637 0.000000
vt 0.272728 0.157461
vt 1.000000 0.157461
vt 0.090910 0.157461
vt 0.818182 0.157461
vt 0.636364 0.157461
vt 0.454546 0.157461
vt 0.181819 0.314921
vt 0.000000 0.314921
vt 0.909091 0.314921
vt 0.727273 0.314921
vt 0.545455 0.314921
vt 0.363637 0.314921
vt 0.272728 0.472382
vt 0.090910 0.472382
vt 0.636364 0.472382
vt 0.818182 0.472382
vt 0.454546 0.472382
vt 0.409092 0.236191
vt 0.318182 0.236191
vt 0.545455 0.157461
vt 0.727273 0.157461
vt 0.590909 0.078731
vt 0.681818 0.078731
vt 0.909091 0.157461
vt 0.772727 0.078731
vt 0.863636 0.078731
vt 0.500000 0.078731
vt 0.409092 0.078731
vt 0.363637 0.157461
vt 0.181819 0.157461
vt 0.318182 0.078731
vt 0.227273 0.078731
vt 0.954545 0.078731
vt 0.136365 0.078731
vt 0.136365 0.236191
vt 0.227273 0.236191
vt 0.863636 0.236191
vt 0.045455 0.236191
vt 0.954545 0.236191
vt 0.681818 0.236191
vt 0.772727 0.236191
vt 0.500000 0.236191
vt 0.590909 0.236191
vt 0.272728 0.314921
vt 0.090910 0.314921
vt 0.818182 0.314921
vt 0.636364 0.314921
vt 0.454546 0.314921
vt 0.227273 0.393651
vt 0.136365 0.393651
vt 0.318182 0.393651
vt 0.409092 0.393651
vt 0.045455 0.393651
vt 0.863636 0.393651
vt 0.772727 0.393651
vt 0.681818 0.393651
vt 0.590909 0.393651
vt 0.500000 0.393651
s 0
f 11/11/1 12/12/1 18/18/1 17/17/1
f 4/4/2 5/5/2 11/11/2 10/10/2
f 2/2/3 3/3/3 9/9/3 7/7/3
f 5/5/4 6/6/4 12/12/4 11/11/4
f 3/3/5 4/4/5 10/10/5 9/9/5
f 1/1/6 2/2/6 7/7/6 8/8/6
f 6/6/7 1/1/7 8/8/7 12/12/7
f 18/18/7 14/14/7 20/20/7 24/24/7
f 9/9/8 10/10/8 16/16/8 15/15/8
f 8/8/9 7/7/9 13/13/9 14/14/9
f 12/12/10 8/8/10 14/14/10 18/18/10
f 10/10/11 11/11/11 17/17/11 16/16/11
f 7/7/12 9/9/12 15/15/12 13/13/12
f 19/19/13 21/21/13 22/22/13 23/23/13 24/24/13 20/20/13
f 16/16/2 17/17/2 23/23/2 22/22/2
f 13/13/3 15/15/3 21/21/3 19/19/3
f 17/17/4 18/18/4 24/24/4 23/23/4
f 15/15/5 16/16/5 22/22/5 21/21/5
f 14/14/6 13/13/6 19/19/6 20/20/6
f 25/25/14 48/63/14 47/61/14
f 26/30/15 45/58/15 47/60/15
f 25/26/16 43/55/16 48/62/16
f 25/27/17 41/52/17 43/54/17
f 25/28/18 44/56/18 41/51/18
f 26/30/19 38/48/19 45/58/19
f 27/32/20 49/64/20 46/59/20
f 28/33/21 51/66/21 42/53/21
f 29/34/22 53/69/22 40/50/22
f 30/35/23 55/71/23 39/49/23
f 26/30/24 50/65/24 38/48/24
f 27/32/25 52/67/25 49/64/25
f 28/33/26 54/70/26 51/66/26
f 29/34/27 56/72/27 53/69/27
f 30/35/28 37/47/28 55/71/28
f 31/36/29 62/78/29 57/73/29
f 32/37/30 64/82/30 58/74/30
f 33/39/31 65/84/31 59/75/31
f 34/40/32 66/86/32 60/76/32
f 35/41/33 63/81/33 61/77/33
f 53/69/34 60/76/34 33/39/34
f 62/78/35 36/42/35 63/80/35
f 53/69/36 56/72/36 60/76/36
f 57/73/37 63/80/37 35/41/37
f 57/73/38 62/78/38 63/80/38
f 64/82/39 36/43/39 62/79/39
f 37/47/40 35/41/40 61/77/40
f 55/71/41 37/47/41 61/77/41
f 59/75/42 65/84/42 64/83/42
f 58/74/43 62/79/43 31/36/43
f 58/74/44 64/82/44 62/79/44
f 55/71/45 61/77/45 34/40/45
f 59/75/46 64/83/46 32/38/46
f 66/86/47 36/44/47 65/85/47
f 65/84/48 36/45/48 64/83/48
f 60/76/49 66/86/49 65/85/49
f 63/81/50 36/46/50 66/87/50
f 61/77/51 63/81/51 66/87/51
f 61/77/52 66/87/52 34/40/52
f 60/76/53 65/85/53 33/39/53
f 56/72/54 34/40/54 60/76/54
f 51/66/55 59/75/55 32/38/55
f 51/66/56 54/70/56 59/75/56
f 54/70/57 33/39/57 59/75/57
f 49/64/58 58/74/58 31/36/58
f 49/64/59 52/67/59 58/74/59
f 52/67/60 32/37/60 58/74/60
f 38/48/61 57/73/61 35/41/61
f 38/48/62 50/65/62 57/73/62
f 50/65/63 31/36/63 57/73/63
f 39/49/64 56/72/64 29/34/64
f 39/49/65 55/71/65 56/72/65
f 55/71/66 34/40/66 56/72/66
f 40/50/67 54/70/67 28/33/67
f 40/50/68 53/69/68 54/70/68
f 53/69/69 33/39/69 54/70/69
f 42/53/70 52/68/70 27/31/70
f 42/53/71 51/66/71 52/68/71
f 51/66/72 32/38/72 52/68/72
f 46/59/73 50/65/73 26/30/73
f 46/59/74 49/64/74 50/65/74
f 49/64/75 31/36/75 50/65/75
f 45/58/76 37/47/76 30/35/76
f 45/58/77 38/48/77 37/47/77
f 38/48/78 35/41/78 37/47/78
f 41/51/79 39/49/79 29/34/79
f 41/51/80 44/56/80 39/49/80
f 44/56/81 30/35/81 39/49/81
f 43/54/82 40/50/82 28/33/82
f 43/54/83 41/52/83 40/50/83
f 41/52/84 29/34/84 40/50/84
f 48/62/85 42/53/85 27/31/85
f 48/62/86 43/55/86 42/53/86
f 43/55/87 28/33/87 42/53/87
f 47/60/88 44/57/88 25/29/88
f 47/60/89 45/58/89 44/57/89
f 45/58/90 30/35/90 44/57/90
f 47/61/91 46/59/91 26/30/91
f 47/61/92 48/63/92 46/59/92
f 48/63/93 27/32/93 46/59/93
