# Blender 3.3.0
# www.blender.org
o Circle
v 0.000000 1.000000 0.000000
v -0.866025 0.500000 0.000000
v -0.866025 -0.500000 0.000000
v 0.000000 -1.000000 0.000000
v 0.866025 -0.500000 0.000000
v 0.866025 0.500000 0.000000
v -0.866025 0.500000 0.736084
v 0.000000 1.000000 0.736084
v -0.866025 -0.500000 0.736084
v 0.000000 -1.000000 0.736084
v 0.866025 -0.500000 0.736084
v 0.866025 0.500000 0.736084
v -0.523613 0.302308 0.736084
v 0.000000 0.604616 0.736084
v -0.523613 -0.302308 0.736084
v 0.000000 -0.604616 0.736084
v 0.523613 -0.302308 0.736084
v 0.523613 0.302308 0.736084
v -0.523613 0.302308 2.288341
v 0.000000 0.604616 2.288341
v -0.523613 -0.302308 2.288341
v 0.000000 -0.604616 2.288341
v 0.523613 -0.302308 2.288341
v 0.523613 0.302308 2.288341
v 0.000000 0.000000 2.567239
v 0.543271 -0.394705 2.982264
v -0.207507 -0.638651 2.982264
v -0.671525 0.000000 2.982264
v -0.207507 0.638651 2.982264
v 0.543271 0.394705 2.982264
v 0.207507 -0.638651 3.653792
v -0.543271 -0.394705 3.653792
v -0.543271 0.394705 3.653792
v 0.207507 0.638651 3.653792
v 0.671525 0.000000 3.653792
v 0.000000 0.000000 4.068817
vn -0.0000 -0.0000 -1.0000
vn -0.0000 -0.0000 1.0000
vn 0.5000 -0.8660 -0.0000
vn -1.0000 -0.0000 -0.0000
vn 1.0000 -0.0000 -0.0000
vn -0.5000 -0.8660 -0.0000
vn -0.5000 0.8660 -0.0000
vn 0.5000 0.8660 -0.0000
vn 0.1876 -0.5774 -0.7947
vn 0.6071 -0.0000 -0.7947
vn -0.4911 -0.3568 -0.7947
vn -0.4911 0.3568 -0.7947
vn 0.1876 0.5774 -0.7947
vn 0.9822 -0.0000 -0.1876
vn 0.3035 -0.9342 -0.1876
vn -0.7946 -0.5774 -0.1876
vn -0.7946 0.5774 -0.1876
vn 0.3035 0.9342 -0.1876
vn 0.7946 -0.5774 0.1876
vn -0.3035 -0.9342 0.1876
vn -0.9822 -0.0000 0.1876
vn -0.3035 0.9342 0.1876
vn 0.7946 0.5774 0.1876
vn 0.4911 -0.3568 0.7947
vn -0.1876 -0.5774 0.7947
vn -0.6071 -0.0000 0.7947
vn -0.1876 0.5774 0.7947
vn 0.4911 0.3568 0.7947
vt 0.000000 0.000000
vt 0.000000 0.000000
vt 0.000000 0.000000
vt 0.000000 0.000000
vt 0.000000 0.000000
vt 0.000000 0.000000
vt 0.000000 0.000000
vt 0.000000 0.000000
vt 0.000000 0.000000
vt 0.000000 0.000000
vt 0.000000 0.000000
vt 0.000000 0.000000
vt 0.000000 0.000000
vt 0.000000 0.000000
vt 0.000000 0.000000
vt 0.000000 0.000000
vt 0.000000 0.000000
vt 0.000000 0.000000
vt 0.000000 0.000000
vt 0.000000 0.000000
vt 0.000000 0.000000
vt 0.000000 0.000000
vt 0.000000 0.000000
vt 0.000000 0.000000
vt 0.181819 0.000000
vt 0.363637 0.000000
vt 0.909091 0.000000
vt 0.727273 0.000000
vt 0.545455 0.000000
vt 0.272728 0.157461
vt 1.000000 0.157461
vt 0.090910 0.157461
vt 0.818182 0.157461
vt 0.636364 0.157461
vt 0.454546 0.157461
vt 0.181819 0.314921
vt 0.000000 0.314921
vt 0.909091 0.314921
vt 0.727273 0.314921
vt 0.545455 0.314921
vt 0.363637 0.314921
vt 0.272728 0.472382
vt 0.090910 0.472382
vt 0.818182 0.472382
vt 0.636364 0.472382
vt 0.454546 0.472382
s 0
f 2/2/1 1/1/1 6/6/1 5/5/1 4/4/1 3/3/1
f 11/11/2 12/12/2 18/18/2 17/17/2
f 4/4/3 5/5/3 11/11/3 10/10/3
f 2/2/4 3/3/4 9/9/4 7/7/4
f 5/5/5 6/6/5 12/12/5 11/11/5
f 3/3/6 4/4/6 10/10/6 9/9/6
f 1/1/7 2/2/7 7/7/7 8/8/7
f 6/6/8 1/1/8 8/8/8 12/12/8
f 18/18/8 14/14/8 20/20/8 24/24/8
f 9/9/2 10/10/2 16/16/2 15/15/2
f 8/8/2 7/7/2 13/13/2 14/14/2
f 12/12/2 8/8/2 14/14/2 18/18/2
f 10/10/2 11/11/2 17/17/2 16/16/2
f 7/7/2 9/9/2 15/15/2 13/13/2
f 19/19/2 21/21/2 22/22/2 23/23/2 24/24/2 20/20/2
f 16/16/3 17/17/3 23/23/3 22/22/3
f 13/13/4 15/15/4 21/21/4 19/19/4
f 17/17/5 18/18/5 24/24/5 23/23/5
f 15/15/6 16/16/6 22/22/6 21/21/6
f 14/14/7 13/13/7 19/19/7 20/20/7
f 25/25/9 26/30/9 27/32/9
f 26/30/10 25/26/10 30/35/10
f 25/27/11 27/31/11 28/33/11
f 25/28/12 28/33/12 29/34/12
f 25/29/13 29/34/13 30/35/13
f 26/30/14 30/35/14 35/41/14
f 27/32/15 26/30/15 31/36/15
f 28/33/16 27/31/16 32/38/16
f 29/34/17 28/33/17 33/39/17
f 30/35/18 29/34/18 34/40/18
f 26/30/19 35/41/19 31/36/19
f 27/32/20 31/36/20 32/37/20
f 28/33/21 32/38/21 33/39/21
f 29/34/22 33/39/22 34/40/22
f 30/35/23 34/40/23 35/41/23
f 31/36/24 35/41/24 36/42/24
f 32/37/25 31/36/25 36/43/25
f 33/39/26 32/38/26 36/44/26
f 34/40/27 33/39/27 36/45/27
f 35/41/28 34/40/28 36/46/28
