# Blender 3.3.0
# www.blender.org
o Core
v 0.000000 1.000000 0.066916
v -0.866025 0.500000 0.066916
v -0.866025 -0.500000 0.066916
v 0.000000 -1.000000 0.066916
v 0.866025 -0.500000 0.066916
v 0.866025 0.500000 0.066916
v -0.397030 0.238527 0.181044
v -0.397030 -0.199986 0.181044
v -0.017267 -0.419242 0.181044
v 0.362496 -0.199986 0.181044
v 0.362496 0.238527 0.181044
v -0.017267 0.457783 0.181044
v 0.866025 0.500000 0.141019
v 0.866025 -0.500000 0.141019
v 0.000000 -1.000000 0.141019
v -0.866025 -0.500000 0.141019
v 0.000000 1.000000 0.141019
v -0.866025 0.500000 0.141019
v 0.362496 -0.199986 2.191044
v -0.017267 -0.419242 2.191044
v -0.397030 0.238527 2.191044
v -0.017267 0.457783 2.191044
v 0.362496 0.238527 2.191044
v -0.397030 -0.199986 2.191044
v -0.639716 0.658871 0.181044
v -0.259953 0.878127 0.181044
v -0.639716 0.658871 2.191044
v -0.259953 0.878127 2.191044
v -0.639716 0.658871 0.181044
v -0.259953 0.878127 0.181044
v -0.639716 0.658871 2.191044
v -0.259953 0.878127 2.191044
v 0.237949 -0.128079 2.278494
v -0.017267 -0.275428 2.278494
v -0.272484 0.166620 2.278494
v -0.017267 0.313969 2.278494
v 0.237949 0.166620 2.278494
v -0.272484 -0.128079 2.278494
vn -0.0417 -0.0722 -0.9965
vn 0.0404 0.0699 -0.9967
vn 0.0850 -0.0000 -0.9964
vn 0.5000 0.8660 -0.0000
vn -0.0792 -0.0000 -0.9969
vn -0.0390 0.0675 -0.9970
vn 0.0433 -0.0749 -0.9963
vn 1.0000 -0.0000 -0.0000
vn 0.5000 -0.8660 -0.0000
vn -0.5000 0.8660 -0.0000
vn -1.0000 -0.0000 -0.0000
vn -0.5000 -0.8660 -0.0000
vn -0.5746 -0.0000 -0.8184
vn -0.0000 -0.0000 -1.0000
vn -0.2873 -0.4977 -0.8184
vn -0.2873 0.4977 -0.8184
vn 0.5746 -0.0000 -0.8184
vn 0.2873 0.4977 -0.8184
vn 0.2873 -0.4977 -0.8184
vt 0.000000 0.000000
vt 0.000000 0.000000
vt 0.000000 0.000000
vt 0.000000 0.000000
vt 0.000000 0.000000
vt 0.000000 0.000000
vt 0.000000 0.000000
vt 0.000000 0.000000
vt 0.000000 0.000000
vt 0.000000 0.000000
vt 0.000000 0.000000
vt 0.000000 0.000000
vt 0.000000 0.000000
vt 0.000000 0.000000
vt 0.000000 0.000000
vt 0.000000 0.000000
vt 0.000000 0.000000
vt 0.000000 0.000000
vt 0.000000 0.000000
vt 0.000000 0.000000
vt 0.000000 0.000000
vt 0.000000 0.000000
vt 0.000000 0.000000
vt 0.000000 0.000000
vt 0.000000 0.000000
vt 0.000000 0.000000
vt 0.000000 0.000000
vt 0.000000 0.000000
vt 0.000000 0.000000
vt 0.000000 0.000000
s 0
f 17/17/1 13/13/1 11/11/1 12/12/1
f 15/15/2 16/16/2 8/8/2 9/9/2
f 16/16/3 18/18/3 7/7/3 8/8/3
f 4/4/4 3/3/4 16/16/4 15/15/4
f 13/13/5 14/14/5 10/10/5 11/11/5
f 14/14/6 15/15/6 9/9/6 10/10/6
f 18/18/7 17/17/7 12/12/7 7/7/7
f 3/3/8 2/2/8 18/18/8 16/16/8
f 2/2/9 1/1/9 17/17/9 18/18/9
f 5/5/10 4/4/10 15/15/10 14/14/10
f 6/6/11 5/5/11 14/14/11 13/13/11
f 1/1/12 6/6/12 13/13/12 17/17/12
f 23/23/13 19/19/13 33/25/13 37/29/13
f 12/12/9 22/22/9 21/21/9 7/7/9
f 11/11/12 23/23/12 22/22/12 12/12/12
f 10/10/11 19/19/11 23/23/11 11/11/11
f 8/8/4 24/24/4 20/20/4 9/9/4
f 9/9/10 20/20/10 19/19/10 10/10/10
f 7/7/8 21/21/8 24/24/8 8/8/8
f 35/27/14 36/28/14 37/29/14 33/25/14 34/26/14 38/30/14
f 22/22/15 23/23/15 37/29/15 36/28/15
f 19/19/16 20/20/16 34/26/16 33/25/16
f 24/24/17 21/21/17 35/27/17 38/30/17
f 20/20/18 24/24/18 38/30/18 34/26/18
f 21/21/19 22/22/19 36/28/19 35/27/19
l 29 25
l 30 26
l 31 27
l 28 32
o Section_NW
v -0.397030 0.238527 0.181044
v -0.017267 0.457783 0.181044
v -0.397030 0.238527 2.191044
v -0.017267 0.457783 2.191044
v -0.639716 0.658871 0.181044
v -0.259953 0.878127 0.181044
v -0.639716 0.658871 2.191044
v -0.259953 0.878127 2.191044
v -0.639716 0.658871 0.181044
v -0.259953 0.878127 0.181044
v -0.639716 0.658871 2.191044
v -0.259953 0.878127 2.191044
vn -0.8660 -0.5000 -0.0000
vn -0.0000 -0.0000 1.0000
vn 0.8660 0.5000 -0.0000
vn -0.0000 -0.0000 -1.0000
vn 0.5000 -0.8660 -0.0000
vt 0.000000 0.000000
vt 0.000000 0.000000
vt 0.000000 0.000000
vt 0.000000 0.000000
vt 0.000000 0.000000
vt 0.000000 0.000000
vt 0.000000 0.000000
vt 0.000000 0.000000
vt 0.000000 0.000000
vt 0.000000 0.000000
vt 0.000000 0.000000
vt 0.000000 0.000000
s 0
f 40/32/20 42/34/20 46/38/20 44/36/20
f 44/36/21 46/38/21 50/42/21 48/40/21
f 41/33/22 39/31/22 43/35/22 45/37/22
f 42/34/23 41/33/23 45/37/23 46/38/23
f 47/39/24 48/40/24 50/42/24 49/41/24
f 45/37/21 43/35/21 47/39/21 49/41/21
o Section_NE
v 0.362496 0.238527 0.181044
v -0.017267 0.457783 0.181044
v -0.017267 0.457783 2.191044
v 0.362496 0.238527 2.191044
v 0.239503 0.902523 0.181044
v 0.619266 0.683266 0.181044
v 0.239503 0.902523 2.191044
v 0.619266 0.683266 2.191044
vn 0.8660 -0.5000 -0.0000
vn -0.5000 -0.8660 -0.0000
vn -0.0000 -0.0000 -1.0000
vn -0.8660 0.5000 -0.0000
vt 0.000000 0.000000
vt 0.000000 0.000000
vt 0.000000 0.000000
vt 0.000000 0.000000
vt 0.000000 0.000000
vt 0.000000 0.000000
vt 0.000000 0.000000
vt 0.000000 0.000000
s 0
f 53/45/25 52/44/25 55/47/25 57/49/25
f 55/47/26 56/48/26 58/50/26 57/49/26
f 54/46/27 53/45/27 57/49/27 58/50/27
f 51/43/28 54/46/28 58/50/28 56/48/28
o Section_E
v 0.362496 -0.199986 0.181044
v 0.362496 0.238527 0.181044
v 0.362496 -0.199986 2.191044
v 0.362496 0.238527 2.191044
v 0.888330 0.238527 0.181044
v 0.888330 -0.199986 0.181044
v 0.888330 0.238527 2.191044
v 0.888330 -0.199986 2.191044
vn -0.0000 1.0000 -0.0000
vn -1.0000 -0.0000 -0.0000
vn -0.0000 -0.0000 -1.0000
vn -0.0000 -1.0000 -0.0000
vt 0.000000 0.000000
vt 0.000000 0.000000
vt 0.000000 0.000000
vt 0.000000 0.000000
vt 0.000000 0.000000
vt 0.000000 0.000000
vt 0.000000 0.000000
vt 0.000000 0.000000
s 0
f 59/51/29 61/53/29 66/58/29 64/56/29
f 63/55/30 64/56/30 66/58/30 65/57/30
f 61/53/31 62/54/31 65/57/31 66/58/31
f 62/54/32 60/52/32 63/55/32 65/57/32
o Section_SE
v -0.017267 -0.419242 0.181044
v 0.362496 -0.199986 0.181044
v 0.362496 -0.199986 2.191044
v -0.017267 -0.419242 2.191044
v 0.631909 -0.666623 0.181044
v 0.252146 -0.885879 0.181044
v 0.631909 -0.666623 2.191044
v 0.252146 -0.885879 2.191044
vn 0.8660 0.5000 -0.0000
vn -0.5000 0.8660 -0.0000
vn -0.8660 -0.5000 -0.0000
vn -0.0000 -0.0000 -1.0000
vt 0.000000 0.000000
vt 0.000000 0.000000
vt 0.000000 0.000000
vt 0.000000 0.000000
vt 0.000000 0.000000
vt 0.000000 0.000000
vt 0.000000 0.000000
vt 0.000000 0.000000
s 0
f 67/59/33 70/62/33 74/66/33 72/64/33
f 71/63/34 72/64/34 74/66/34 73/65/34
f 69/61/35 68/60/35 71/63/35 73/65/35
f 70/62/36 69/61/36 73/65/36 74/66/36
o Section_SW
v -0.397030 -0.199986 0.181044
v -0.017267 -0.419242 0.181044
v -0.017267 -0.419242 2.191044
v -0.397030 -0.199986 2.191044
v -0.273485 -0.863025 0.181044
v -0.653248 -0.643768 0.181044
v -0.273485 -0.863025 2.191044
v -0.653248 -0.643768 2.191044
vn -0.8660 0.5000 -0.0000
vn 0.5000 0.8660 -0.0000
vn 0.8660 -0.5000 -0.0000
vn -0.0000 -0.0000 -1.0000
vt 0.000000 0.000000
vt 0.000000 0.000000
vt 0.000000 0.000000
vt 0.000000 0.000000
vt 0.000000 0.000000
vt 0.000000 0.000000
vt 0.000000 0.000000
vt 0.000000 0.000000
s 0
f 77/69/37 76/68/37 79/71/37 81/73/37
f 79/71/38 80/72/38 82/74/38 81/73/38
f 75/67/39 78/70/39 82/74/39 80/72/39
f 78/70/40 77/69/40 81/73/40 82/74/40
o Section_W
v -0.397030 0.238527 0.181044
v -0.397030 -0.199986 0.181044
v -0.397030 0.238527 2.191044
v -0.397030 -0.199986 2.191044
v -0.889062 -0.199986 0.181044
v -0.889062 0.238527 0.181044
v -0.889062 -0.199986 2.191044
v -0.889062 0.238527 2.191044
vn 1.0000 -0.0000 -0.0000
vn -0.0000 1.0000 -0.0000
vn -0.0000 -1.0000 -0.0000
vn -0.0000 -0.0000 -1.0000
vt 0.000000 0.000000
vt 0.000000 0.000000
vt 0.000000 0.000000
vt 0.000000 0.000000
vt 0.000000 0.000000
vt 0.000000 0.000000
vt 0.000000 0.000000
vt 0.000000 0.000000
s 0
f 87/79/41 88/80/41 90/82/41 89/81/41
f 86/78/42 84/76/42 87/79/42 89/81/42
f 83/75/43 85/77/43 90/82/43 88/80/43
f 85/77/44 86/78/44 89/81/44 90/82/44
